# xmcd
#
# Track frame offsets:
#	182
#	14282
#	24805
#	42232
#	55337
#	69710
#	82357
#	96857
#	116315
#	134750
#	147990
#	161410
#	176507
#
# Disc length: 2496 seconds
#
# Revision: 2
# Processed by: cddbd v1.4PL0 Copyright (c) Steve Scherf et al.
# Submitted via: EasyCDDAExtractor 5.0.7
#
DISCID=b109be0d
DTITLE=The Flying Burrito Bros. - Dim Lights, Thick Smoke and Loud Loud Music
DYEAR=1987
DGENRE=Country
TTITLE0=The Train Song
TTITLE1=Close up the Honky Tonks
TTITLE2=Sing Me Back Home
TTITLE3=Tonight the Bottle Let Me Down
TTITLE4=Your Angel Steps Out Of Heaven
TTITLE5=Crazy Arms
TTITLE6=Together Again
TTITLE7=Honky Tonk Women
TTITLE8=Green Green Grass of Home
TTITLE9=Dim Lights
TTITLE10=Bony Moronie
TTITLE11=To Love Somebody
TTITLE12=Break My Mind
EXTD=
EXTT0=
EXTT1=
EXTT2=
EXTT3=
EXTT4=
EXTT5=
EXTT6=
EXTT7=
EXTT8=
EXTT9=
EXTT10=
EXTT11=
EXTT12=
PLAYORDER=
